<svg width="632" height="517" viewBox="0 0 632 517" fill="none" xmlns="http://www.w3.org/2000/svg">
<path d="M193.755 285.5L585.009 197.628L631.245 403.5L225 487L193.755 285.5Z" fill="url(#paint0_linear_412_22)"/>
<path d="M193.755 285.5L585.009 197.628L631.245 403.5L225 487L193.755 285.5Z" fill="url(#paint1_radial_412_22)" fill-opacity="0.2"/>
<path d="M117 240.5L194.375 285L226 487.5L143 418.5L117 240.5Z" fill="url(#paint2_linear_412_22)"/>
<path d="M117 240.485L430 174.985L586.731 197.71L195.477 285.581L117 240.485Z" fill="url(#paint3_linear_412_22)"/>
<path d="M45.2015 328.237L184.938 324.519L198.229 417.646L78.4582 507.217L45.2015 328.237Z" fill="#585858"/>
<path d="M17.6592 297.835L172.642 305.418L185.05 324.027L45.7116 329.837L17.6592 297.835Z" fill="#777777"/>
<path d="M18 298L45.5 329.5L78.2774 507.202L44.1932 458.325L18 298Z" fill="black"/>
<circle cx="424.667" cy="109.667" r="99.61" transform="rotate(6.12362 424.667 109.667)" fill="url(#paint4_radial_412_22)"/>
<circle cx="233.667" cy="138.667" r="99.61" transform="rotate(6.12362 233.667 138.667)" fill="url(#paint5_radial_412_22)"/>
<rect x="232" y="125.994" width="196.495" height="33.3796" rx="16.6898" transform="rotate(-10.5551 232 125.994)" fill="url(#paint6_linear_412_22)"/>
<rect x="232.583" y="126.394" width="195.495" height="32.3796" rx="16.1898" transform="rotate(-10.5551 232.583 126.394)" stroke="#9A9A9A" stroke-opacity="0.62"/>
<g filter="url(#filter0_i_412_22)">
<path d="M263.746 310.695L280.576 307.136L298.118 332.9L298.702 332.776L304.312 302.117L321.142 298.558L331.674 348.366L318.444 351.164L312.355 322.368L311.966 322.451L306.883 353.202L298.906 354.889L281.768 328.633L281.379 328.716L287.509 357.705L274.279 360.503L263.746 310.695ZM381.068 311.903C382.24 317.448 382.151 322.354 380.8 326.62C379.446 330.87 377.145 334.363 373.895 337.1C370.642 339.821 366.762 341.657 362.255 342.61C357.715 343.57 353.406 343.457 349.327 342.27C345.26 341.063 341.748 338.791 338.789 335.453C335.843 332.096 333.788 327.661 332.622 322.148C331.449 316.603 331.532 311.707 332.87 307.461C334.22 303.195 336.514 299.703 339.751 296.986C343 294.249 346.895 292.401 351.434 291.441C355.942 290.488 360.235 290.605 364.314 291.792C368.39 292.962 371.909 295.225 374.871 298.579C377.829 301.917 379.895 306.358 381.068 311.903ZM367.156 314.845C366.526 311.862 365.597 309.433 364.37 307.558C363.157 305.663 361.668 304.352 359.905 303.624C358.155 302.876 356.161 302.739 353.924 303.212C351.686 303.685 349.91 304.619 348.596 306.015C347.295 307.391 346.465 309.193 346.106 311.42C345.76 313.628 345.902 316.223 346.533 319.206C347.164 322.19 348.086 324.628 349.3 326.523C350.526 328.398 352.015 329.709 353.765 330.457C355.528 331.185 357.528 331.313 359.766 330.84C362.003 330.366 363.773 329.442 365.074 328.066C366.388 326.67 367.218 324.868 367.564 322.661C367.923 320.434 367.787 317.828 367.156 314.845ZM392.533 283.461L410.174 316.42L410.563 316.337L413.351 279.059L428.625 275.829L422.717 329.113L404.233 333.022L377.26 286.691L392.533 283.461ZM446.944 271.955L457.476 321.763L443.954 324.622L433.422 274.815L446.944 271.955ZM463.885 320.408L453.352 270.6L489.249 263.009L491.553 273.905L469.178 278.636L470.988 287.197L491.515 282.856L493.819 293.752L473.292 298.092L475.103 306.653L497.38 301.942L499.684 312.838L463.885 320.408ZM324.427 384.743L334.96 434.551L323.675 436.937L300.145 414.574L299.853 414.636L305.386 440.804L291.864 443.664L281.332 393.856L292.811 391.429L316.029 413.756L316.418 413.674L310.905 387.603L324.427 384.743ZM354.294 430.462L339.702 433.548L345.61 380.264L364.093 376.355L391.066 422.686L376.474 425.772L357.947 391.985L357.558 392.067L354.294 430.462ZM347.415 411.388L374.848 405.586L376.987 415.704L349.554 421.505L347.415 411.388ZM379.986 384.377L377.682 373.482L420.972 364.327L423.276 375.223L408.295 378.391L416.523 417.303L403.196 420.121L394.967 381.209L379.986 384.377ZM439.583 360.392L450.116 410.199L436.594 413.059L426.061 363.251L439.583 360.392ZM499.509 373.737C500.681 379.282 500.592 384.187 499.242 388.454C497.888 392.704 495.586 396.197 492.336 398.934C489.084 401.654 485.204 403.491 480.696 404.444C476.156 405.404 471.847 405.29 467.768 404.104C463.702 402.897 460.189 400.625 457.23 397.287C454.285 393.929 452.229 389.494 451.063 383.981C449.89 378.436 449.973 373.541 451.311 369.294C452.662 365.028 454.955 361.536 458.192 358.819C461.441 356.083 465.336 354.234 469.876 353.274C474.383 352.321 478.676 352.438 482.755 353.625C486.831 354.796 490.35 357.058 493.312 360.413C496.271 363.75 498.336 368.192 499.509 373.737ZM485.598 376.679C484.967 373.695 484.038 371.266 482.812 369.391C481.598 367.497 480.11 366.185 478.346 365.457C476.596 364.71 474.602 364.572 472.365 365.045C470.127 365.518 468.352 366.453 467.038 367.849C465.736 369.225 464.906 371.027 464.547 373.254C464.201 375.461 464.343 378.056 464.974 381.04C465.605 384.023 466.527 386.462 467.741 388.356C468.967 390.231 470.456 391.543 472.206 392.291C473.969 393.019 475.97 393.146 478.207 392.673C480.444 392.2 482.214 391.275 483.515 389.899C484.829 388.503 485.659 386.702 486.005 384.494C486.364 382.267 486.228 379.662 485.598 376.679ZM543.594 338.397L554.127 388.205L542.842 390.591L519.312 368.228L519.02 368.29L524.553 394.458L511.031 397.318L500.499 347.51L511.978 345.083L535.196 367.41L535.585 367.328L530.072 341.256L543.594 338.397Z" fill="white"/>
</g>
<defs>
<filter id="filter0_i_412_22" x="263.602" y="254.555" width="292.668" height="194.59" filterUnits="userSpaceOnUse" color-interpolation-filters="sRGB">
<feFlood flood-opacity="0" result="BackgroundImageFix"/>
<feBlend mode="normal" in="SourceGraphic" in2="BackgroundImageFix" result="shape"/>
<feColorMatrix in="SourceAlpha" type="matrix" values="0 0 0 0 0 0 0 0 0 0 0 0 0 0 0 0 0 0 127 0" result="hardAlpha"/>
<feOffset dx="2" dy="5"/>
<feGaussianBlur stdDeviation="2.4"/>
<feComposite in2="hardAlpha" operator="arithmetic" k2="-1" k3="1"/>
<feColorMatrix type="matrix" values="0 0 0 0 0 0 0 0 0 0 0 0 0 0 0 0 0 0 1 0"/>
<feBlend mode="normal" in2="shape" result="effect1_innerShadow_412_22"/>
</filter>
<linearGradient id="paint0_linear_412_22" x1="613.5" y1="383" x2="308.5" y2="320.5" gradientUnits="userSpaceOnUse">
<stop stop-color="#5A5A5A"/>
<stop offset="1" stop-color="#4F4D4D"/>
</linearGradient>
<radialGradient id="paint1_radial_412_22" cx="0" cy="0" r="1" gradientUnits="userSpaceOnUse" gradientTransform="translate(487 389) rotate(38.8999) scale(93.1585 183.08)">
<stop stop-opacity="0"/>
<stop offset="1"/>
</radialGradient>
<linearGradient id="paint2_linear_412_22" x1="142.647" y1="235.801" x2="243.5" y2="522" gradientUnits="userSpaceOnUse">
<stop stop-color="#1A1A1A"/>
<stop offset="1" stop-color="#565555"/>
</linearGradient>
<linearGradient id="paint3_linear_412_22" x1="119.708" y1="268.223" x2="771" y2="164.485" gradientUnits="userSpaceOnUse">
<stop stop-color="#0F0F0F"/>
<stop offset="1" stop-color="#898989"/>
</linearGradient>
<radialGradient id="paint4_radial_412_22" cx="0" cy="0" r="1" gradientUnits="userSpaceOnUse" gradientTransform="translate(424.667 109.667) rotate(-55.5201) scale(110.86)">
<stop/>
<stop offset="1" stop-color="#666666"/>
</radialGradient>
<radialGradient id="paint5_radial_412_22" cx="0" cy="0" r="1" gradientUnits="userSpaceOnUse" gradientTransform="translate(233.667 138.667) rotate(-55.5201) scale(110.86)">
<stop/>
<stop offset="1" stop-color="#666666"/>
</radialGradient>
<linearGradient id="paint6_linear_412_22" x1="193.596" y1="181.518" x2="510.7" y2="114.188" gradientUnits="userSpaceOnUse">
<stop/>
<stop offset="1" stop-color="#666666"/>
</linearGradient>
</defs>
</svg>
